<svg xmlns="http://www.w3.org/2000/svg" xmlns:xlink="http://www.w3.org/1999/xlink" contentStyleType="text/css" data-diagram-type="DESCRIPTION" height="2393.75px" preserveAspectRatio="none" style="width:1142px;height:2393px;" version="1.1" viewBox="0 0 1142 2393" width="1142.7083px" zoomAndPan="magnify"><title>&#128104;&#8205;&#127979; QR Attendance System - Professor Use Cases</title><defs/><g><g class="title" data-source-line="11"><rect fill="none" height="47.168" rx="4.1667" ry="4.1667" style="stroke:#BABDBF;stroke-width:1.0417;" width="587.3189" x="273.0801" y="20.8333"/><text fill="#2FA4E7" font-family="Arial" font-size="20.8333" font-weight="bold" lengthAdjust="spacing" textLength="564.4023" x="284.5385" y="51.6296">&#128104;&#8205;&#127979; QR Attendance System - Professor Use Cases</text></g><!--cluster Authentication--><g class="cluster" data-qualified-name="Authentication" data-source-line="18" id="ent0004"><rect fill="none" height="245.8333" rx="4.1667" ry="4.1667" style="stroke:#2FA4E7;stroke-width:2.0833;" width="605.875" x="170.6563" y="239.7409"/><text fill="#2FA4E7" font-family="Arial" font-size="12.5" font-weight="bold" lengthAdjust="spacing" textLength="104.6753" x="421.2561" y="258.6353">Authentication</text></g><!--cluster Course Management--><g class="cluster" data-qualified-name="Course Management" data-source-line="25" id="ent0009"><rect fill="none" height="493.75" rx="4.1667" ry="4.1667" style="stroke:#2FA4E7;stroke-width:2.0833;" width="255.2604" x="129.0625" y="1876.1992"/><text fill="#2FA4E7" font-family="Arial" font-size="12.5" font-weight="bold" lengthAdjust="spacing" textLength="145.105" x="184.1402" y="1895.0937">Course Management</text></g><!--cluster Session Management--><g class="cluster" data-qualified-name="Session Management" data-source-line="34" id="ent0016"><rect fill="none" height="464.5833" rx="4.1667" ry="4.1667" style="stroke:#2FA4E7;stroke-width:2.0833;" width="986.7188" x="144.6771" y="1076.1992"/><text fill="#2FA4E7" font-family="Arial" font-size="12.5" font-weight="bold" lengthAdjust="spacing" textLength="150.4944" x="562.7893" y="1095.0937">Session Management</text></g><!--cluster Attendance Analytics--><g class="cluster" data-qualified-name="Attendance Analytics" data-source-line="47" id="ent0027"><rect fill="none" height="439.5833" rx="4.1667" ry="4.1667" style="stroke:#2FA4E7;stroke-width:2.0833;" width="215.1563" x="149.1146" y="510.5742"/><text fill="#2FA4E7" font-family="Arial" font-size="12.5" font-weight="bold" lengthAdjust="spacing" textLength="150.0732" x="181.6561" y="529.4687">Attendance Analytics</text></g><!--cluster Security Settings--><g class="cluster" data-qualified-name="Security Settings" data-source-line="55" id="ent0033"><rect fill="none" height="285.4167" rx="4.1667" ry="4.1667" style="stroke:#2FA4E7;stroke-width:2.0833;" width="619.7917" x="134.9792" y="1565.7826"/><text fill="#2FA4E7" font-family="Arial" font-size="12.5" font-weight="bold" lengthAdjust="spacing" textLength="121.7163" x="384.0168" y="1584.677">Security Settings</text></g><!--entity UC1--><g class="entity" data-qualified-name="Authentication.UC1" data-source-line="19" id="ent0005"><ellipse cx="256.6996" cy="307.4461" fill="#BBDEFB" rx="69.3662" ry="24.424" style="stroke:#4CAF50;stroke-width:2.0833;"/><text fill="#2FA4E7" font-family="Arial" font-size="12.5" lengthAdjust="spacing" textLength="112.4878" x="200.4557" y="307.0995">Login with Google</text><text fill="#2FA4E7" font-family="Arial" font-size="12.5" lengthAdjust="spacing" textLength="72.2778" x="220.5607" y="321.6502">(Any Email)</text></g><!--entity UC2--><g class="entity" data-qualified-name="Authentication.UC2" data-source-line="20" id="ent0006"><ellipse cx="664.4239" cy="411.617" fill="#FFCDD2" rx="95.4343" ry="25.4074" style="stroke:#4CAF50;stroke-width:2.0833;"/><text fill="#2FA4E7" font-family="Arial" font-size="12.5" lengthAdjust="spacing" textLength="153.2959" x="587.776" y="410.1049">Wait for Admin Approval</text><text fill="#2FA4E7" font-family="Arial" font-size="12.5" lengthAdjust="spacing" textLength="122.3694" x="603.2392" y="424.6557">(Pending Professor)</text></g><!--entity UC3--><g class="entity" data-qualified-name="Authentication.UC3" data-source-line="21" id="ent0007"><ellipse cx="256.6981" cy="384.5374" fill="#BBDEFB" rx="47.1356" ry="16.2549" style="stroke:#4CAF50;stroke-width:2.0833;"/><text fill="#2FA4E7" font-family="Arial" font-size="12.5" lengthAdjust="spacing" textLength="73.2727" x="220.0617" y="388.167">View Profile</text></g><!--entity UC4--><g class="entity" data-qualified-name="Authentication.UC4" data-source-line="22" id="ent0008"><ellipse cx="256.6989" cy="453.2834" fill="#BBDEFB" rx="29.6781" ry="15.5321" style="stroke:#4CAF50;stroke-width:2.0833;"/><text fill="#2FA4E7" font-family="Arial" font-size="12.5" lengthAdjust="spacing" textLength="43.0176" x="235.1902" y="456.9129">Logout</text></g><!--entity UC5--><g class="entity" data-qualified-name="Course Management.UC5" data-source-line="26" id="ent0010"><ellipse cx="256.6979" cy="2182.445" fill="#C8E6C9" rx="81.6458" ry="18.8292" style="stroke:#4CAF50;stroke-width:2.0833;"/><text fill="#2FA4E7" font-family="Arial" font-size="12.5" lengthAdjust="spacing" textLength="139.1724" x="187.1117" y="2186.0746">View Claimed Courses</text></g><!--entity UC6--><g class="entity" data-qualified-name="Course Management.UC6" data-source-line="27" id="ent0011"><ellipse cx="256.6996" cy="2258.4891" fill="#C8E6C9" rx="91.5537" ry="20.8107" style="stroke:#4CAF50;stroke-width:2.0833;"/><text fill="#2FA4E7" font-family="Arial" font-size="12.5" lengthAdjust="spacing" textLength="161.2" x="176.0996" y="2262.1187">Browse Available Courses</text></g><!--entity UC7--><g class="entity" data-qualified-name="Course Management.UC7" data-source-line="28" id="ent0012"><ellipse cx="256.6938" cy="2334.5359" fill="#C8E6C9" rx="81.3188" ry="18.7638" style="stroke:#4CAF50;stroke-width:2.0833;"/><text fill="#2FA4E7" font-family="Arial" font-size="12.5" lengthAdjust="spacing" textLength="138.4338" x="187.4768" y="2338.1654">Request Course Claim</text></g><!--entity UC8--><g class="entity" data-qualified-name="Course Management.UC8" data-source-line="29" id="ent0013"><ellipse cx="256.7" cy="1939.7413" fill="#C8E6C9" rx="88.1271" ry="20.1254" style="stroke:#4CAF50;stroke-width:2.0833;"/><text fill="#2FA4E7" font-family="Arial" font-size="12.5" lengthAdjust="spacing" textLength="153.6499" x="179.8751" y="1943.3709">Request Course Unclaim</text></g><!--entity UC9--><g class="entity" data-qualified-name="Course Management.UC9" data-source-line="30" id="ent0014"><ellipse cx="256.7013" cy="2017.8686" fill="#C8E6C9" rx="94.9096" ry="21.4819" style="stroke:#4CAF50;stroke-width:2.0833;"/><text fill="#2FA4E7" font-family="Arial" font-size="12.5" lengthAdjust="spacing" textLength="168.5364" x="172.4331" y="2021.4982">View Claim Request Status</text></g><!--entity UC10--><g class="entity" data-qualified-name="Course Management.UC10" data-source-line="31" id="ent0015"><ellipse cx="256.6953" cy="2101.2012" fill="#C8E6C9" rx="110.9661" ry="25.6999" style="stroke:#4CAF50;stroke-width:2.0833;"/><text fill="#2FA4E7" font-family="Arial" font-size="12.5" lengthAdjust="spacing" textLength="148.1262" x="182.6322" y="2095.6972">Update Course Settings</text><text fill="#2FA4E7" font-family="Arial" font-size="12.5" lengthAdjust="spacing" textLength="178.363" x="167.5138" y="2110.248">(Schedule, Location, Radius)</text></g><!--entity UC11--><g class="entity" data-qualified-name="Session Management.UC11" data-source-line="35" id="ent0017"><ellipse cx="256.6934" cy="1356.4046" fill="#FFF9C4" rx="95.3497" ry="21.5699" style="stroke:#4CAF50;stroke-width:2.0833;"/><text fill="#2FA4E7" font-family="Arial" font-size="12.5" lengthAdjust="spacing" textLength="169.4946" x="171.9461" y="1360.0341">Create Attendance Session</text></g><!--entity UC12--><g class="entity" data-qualified-name="Session Management.UC12" data-source-line="36" id="ent0018"><ellipse cx="664.4236" cy="1436.6142" fill="#FFF9C4" rx="112.8194" ry="26.4775" style="stroke:#4CAF50;stroke-width:2.0833;"/><text fill="#2FA4E7" font-family="Arial" font-size="12.5" lengthAdjust="spacing" textLength="167.7673" x="580.5399" y="1432.4712">Configure Session Settings</text><text fill="#2FA4E7" font-family="Arial" font-size="12.5" lengthAdjust="spacing" textLength="175.2136" x="576.8168" y="1447.022">(Location, Duration, Radius)</text></g><!--entity UC13--><g class="entity" data-qualified-name="Session Management.UC13" data-source-line="37" id="ent0019"><ellipse cx="664.4291" cy="1356.4121" fill="#FFF9C4" rx="71.9499" ry="16.89" style="stroke:#4CAF50;stroke-width:2.0833;"/><text fill="#2FA4E7" font-family="Arial" font-size="12.5" lengthAdjust="spacing" textLength="116.8518" x="606.0032" y="1360.0417">Generate QR Code</text></g><!--entity UC14--><g class="entity" data-qualified-name="Session Management.UC14" data-source-line="38" id="ent0020"><ellipse cx="1027.7267" cy="1395.9902" fill="#FFF9C4" rx="59.9142" ry="24.5827" style="stroke:#4CAF50;stroke-width:2.0833;"/><text fill="#2FA4E7" font-family="Arial" font-size="12.5" lengthAdjust="spacing" textLength="94.1711" x="980.6412" y="1394.8991">View Real-time</text><text fill="#2FA4E7" font-family="Arial" font-size="12.5" lengthAdjust="spacing" textLength="68.573" x="993.4402" y="1409.4499">QR Display</text></g><!--entity UC15--><g class="entity" data-qualified-name="Session Management.UC15" data-source-line="39" id="ent0021"><ellipse cx="1027.7326" cy="1314.7457" fill="#FFF9C4" rx="87.0034" ry="19.9007" style="stroke:#4CAF50;stroke-width:2.0833;"/><text fill="#2FA4E7" font-family="Arial" font-size="12.5" lengthAdjust="spacing" textLength="151.1597" x="952.1528" y="1318.3753">Force Refresh QR Token</text></g><!--entity UC16--><g class="entity" data-qualified-name="Session Management.UC16" data-source-line="40" id="ent0022"><ellipse cx="256.7028" cy="1434.5294" fill="#FFF9C4" rx="87.8486" ry="20.0697" style="stroke:#4CAF50;stroke-width:2.0833;"/><text fill="#2FA4E7" font-family="Arial" font-size="12.5" lengthAdjust="spacing" textLength="153.0334" x="180.1861" y="1438.1589">Monitor Live Attendance</text></g><!--entity UC17--><g class="entity" data-qualified-name="Session Management.UC17" data-source-line="41" id="ent0023"><ellipse cx="256.6958" cy="1507.4508" fill="#FFF9C4" rx="67.2375" ry="16.637" style="stroke:#4CAF50;stroke-width:2.0833;"/><text fill="#2FA4E7" font-family="Arial" font-size="12.5" lengthAdjust="spacing" textLength="108.0505" x="202.6706" y="1511.0803">Stop/End Session</text></g><!--entity UC18--><g class="entity" data-qualified-name="Session Management.UC18" data-source-line="42" id="ent0024"><ellipse cx="256.6941" cy="1136.6183" fill="#FFF9C4" rx="59.1212" ry="16.5129" style="stroke:#4CAF50;stroke-width:2.0833;"/><text fill="#2FA4E7" font-family="Arial" font-size="12.5" lengthAdjust="spacing" textLength="94.0125" x="209.6879" y="1140.2479">Cancel Session</text></g><!--entity UC19--><g class="entity" data-qualified-name="Session Management.UC19" data-source-line="43" id="ent0025"><ellipse cx="256.694" cy="1207.4526" fill="#FFF9C4" rx="78.0377" ry="18.1075" style="stroke:#4CAF50;stroke-width:2.0833;"/><text fill="#2FA4E7" font-family="Arial" font-size="12.5" lengthAdjust="spacing" textLength="130.9753" x="191.2063" y="1211.0822">View Active Sessions</text></g><!--entity UC20--><g class="entity" data-qualified-name="Session Management.UC20" data-source-line="44" id="ent0026"><ellipse cx="256.6951" cy="1280.3611" fill="#FFF9C4" rx="77.6326" ry="18.0265" style="stroke:#4CAF50;stroke-width:2.0833;"/><text fill="#2FA4E7" font-family="Arial" font-size="12.5" lengthAdjust="spacing" textLength="130.0476" x="191.6713" y="1283.9907">View Session History</text></g><!--entity UC21--><g class="entity" data-qualified-name="Attendance Analytics.UC21" data-source-line="48" id="ent0028"><ellipse cx="256.6975" cy="740.7816" fill="#E1BEE7" rx="88.7079" ry="23.7491" style="stroke:#4CAF50;stroke-width:2.0833;"/><text fill="#2FA4E7" font-family="Arial" font-size="12.5" lengthAdjust="spacing" textLength="153.5706" x="179.9122" y="742.5786">View Course Attendance</text><text fill="#2FA4E7" font-family="Arial" font-size="12.5" lengthAdjust="spacing" textLength="41.9983" x="235.6983" y="757.1294">Report</text></g><!--entity UC22--><g class="entity" data-qualified-name="Attendance Analytics.UC22" data-source-line="49" id="ent0029"><ellipse cx="256.6951" cy="825.1572" fill="#E1BEE7" rx="90.9139" ry="23.7705" style="stroke:#4CAF50;stroke-width:2.0833;"/><text fill="#2FA4E7" font-family="Arial" font-size="12.5" lengthAdjust="spacing" textLength="157.6233" x="177.8835" y="826.9673">View Session Attendance</text><text fill="#2FA4E7" font-family="Arial" font-size="12.5" lengthAdjust="spacing" textLength="43.335" x="235.0276" y="841.5181">Details</text></g><!--entity UC23--><g class="entity" data-qualified-name="Attendance Analytics.UC23" data-source-line="50" id="ent0030"><ellipse cx="256.7005" cy="661.6164" fill="#E1BEE7" rx="84.7421" ry="19.4484" style="stroke:#4CAF50;stroke-width:2.0833;"/><text fill="#2FA4E7" font-family="Arial" font-size="12.5" lengthAdjust="spacing" textLength="146.1243" x="183.6383" y="665.246">Export Attendance CSV</text></g><!--entity UC24--><g class="entity" data-qualified-name="Attendance Analytics.UC24" data-source-line="51" id="ent0031"><ellipse cx="256.6964" cy="909.5371" fill="#E1BEE7" rx="70.8631" ry="24.3796" style="stroke:#4CAF50;stroke-width:2.0833;"/><text fill="#2FA4E7" font-family="Arial" font-size="12.5" lengthAdjust="spacing" textLength="115.5273" x="198.9327" y="909.3404">View Student-wise</text><text fill="#2FA4E7" font-family="Arial" font-size="12.5" lengthAdjust="spacing" textLength="72.0459" x="220.6734" y="923.8912">Attendance</text></g><!--entity UC25--><g class="entity" data-qualified-name="Attendance Analytics.UC25" data-source-line="52" id="ent0032"><ellipse cx="256.7" cy="580.3637" fill="#E1BEE7" rx="71.4291" ry="25.7687" style="stroke:#4CAF50;stroke-width:2.0833;"/><text fill="#2FA4E7" font-family="Arial" font-size="12.5" lengthAdjust="spacing" textLength="100.116" x="206.642" y="575.8626">View Suspicious</text><text fill="#2FA4E7" font-family="Arial" font-size="12.5" lengthAdjust="spacing" textLength="108.7891" x="202.3054" y="590.4134">Attendance Flags</text></g><!--entity UC26--><g class="entity" data-qualified-name="Security Settings.UC26" data-source-line="56" id="ent0034"><ellipse cx="256.7023" cy="1680.3638" fill="#FFCDD2" rx="105.0461" ry="26.2896" style="stroke:#4CAF50;stroke-width:2.0833;"/><text fill="#2FA4E7" font-family="Arial" font-size="12.5" lengthAdjust="spacing" textLength="153.3508" x="180.0269" y="1676.0075">Configure Security Level</text><text fill="#2FA4E7" font-family="Arial" font-size="12.5" lengthAdjust="spacing" textLength="163.4583" x="174.9732" y="1690.5583">(Standard/Strict/Paranoid)</text></g><!--entity UC27--><g class="entity" data-qualified-name="Security Settings.UC27" data-source-line="57" id="ent0035"><ellipse cx="664.4272" cy="1724.1112" fill="#FFCDD2" rx="63.6668" ry="26.0474" style="stroke:#4CAF50;stroke-width:2.0833;"/><text fill="#2FA4E7" font-family="Arial" font-size="12.5" lengthAdjust="spacing" textLength="93.158" x="617.8482" y="1720.3732">Enable/Disable</text><text fill="#2FA4E7" font-family="Arial" font-size="12.5" lengthAdjust="spacing" textLength="93.9575" x="617.4484" y="1734.924">Device Binding</text></g><!--entity UC28--><g class="entity" data-qualified-name="Security Settings.UC28" data-source-line="58" id="ent0036"><ellipse cx="664.4318" cy="1635.5768" fill="#FFCDD2" rx="68.2339" ry="25.5547" style="stroke:#4CAF50;stroke-width:2.0833;"/><text fill="#2FA4E7" font-family="Arial" font-size="12.5" lengthAdjust="spacing" textLength="93.158" x="617.8529" y="1630.8098">Enable/Disable</text><text fill="#2FA4E7" font-family="Arial" font-size="12.5" lengthAdjust="spacing" textLength="104.2969" x="612.2834" y="1645.3606">Location Binding</text></g><!--entity UC29--><g class="entity" data-qualified-name="Security Settings.UC29" data-source-line="59" id="ent0037"><ellipse cx="664.4308" cy="1810.577" fill="#FFCDD2" rx="73.6704" ry="24.4403" style="stroke:#4CAF50;stroke-width:2.0833;"/><text fill="#2FA4E7" font-family="Arial" font-size="12.5" lengthAdjust="spacing" textLength="120.3735" x="604.244" y="1810.363">Configure Adaptive</text><text fill="#2FA4E7" font-family="Arial" font-size="12.5" lengthAdjust="spacing" textLength="75.7507" x="626.5554" y="1824.9138">Geo-fencing</text></g><!--entity professor--><g class="entity" data-qualified-name="professor" data-source-line="15" id="ent0002"><ellipse cx="45.7804" cy="1253.3034" fill="#66BB6A" rx="16.6667" ry="16.6667" style="stroke:#4CAF50;stroke-width:1.0417;"/><path d="M45.7804,1274.1367 C49.9471,1274.1367 53.0721,1274.1367 57.2388,1269.9701 C65.5721,1269.9701 73.9054,1278.3034 73.9054,1286.6367 L73.9054,1290.8034 C73.9054,1294.9701 69.7388,1299.1367 65.5721,1299.1367 L25.9888,1299.1367 C21.8221,1299.1367 17.6554,1294.9701 17.6554,1290.8034 L17.6554,1286.6367 C17.6554,1278.3034 25.9888,1269.9701 34.3221,1269.9701 C38.4888,1274.1367 41.6138,1274.1367 45.7804,1274.1367" fill="#66BB6A" style="stroke:#4CAF50;stroke-width:1.0417;"/><text fill="#2FA4E7" font-family="Arial" font-size="12.5" lengthAdjust="spacing" textLength="58.2275" x="16.6667" y="1316.9895">Professor</text></g><!--entity admin--><g class="entity" data-qualified-name="admin" data-source-line="16" id="ent0003"><ellipse cx="256.6979" cy="987.6784" fill="#FF7043" rx="16.6667" ry="16.6667" style="stroke:#4CAF50;stroke-width:1.0417;"/><path d="M256.6979,1008.5117 C260.8646,1008.5117 263.9896,1008.5117 268.1563,1004.3451 C276.4896,1004.3451 284.8229,1012.6784 284.8229,1021.0117 L284.8229,1025.1784 C284.8229,1029.3451 280.6563,1033.5117 276.4896,1033.5117 L236.9063,1033.5117 C232.7396,1033.5117 228.5729,1029.3451 228.5729,1025.1784 L228.5729,1021.0117 C228.5729,1012.6784 236.9063,1004.3451 245.2396,1004.3451 C249.4063,1008.5117 252.5313,1008.5117 256.6979,1008.5117" fill="#FF7043" style="stroke:#4CAF50;stroke-width:1.0417;"/><text fill="#2FA4E7" font-family="Arial" font-size="12.5" lengthAdjust="spacing" textLength="40.0574" x="236.6692" y="1051.3645">Admin</text></g><g class="entity" data-qualified-name="GMN68" data-source-line="99" id="ent0069"><path d="M925.7813,1561.7096 L925.7813,1661.5143 A4.1667,4.1667 0 0 0 929.9479,1665.681 L1125.5127,1665.681 A4.1667,4.1667 0 0 0 1129.6794,1661.5143 L1129.6794,1567.9596 L1119.2627,1557.543 L929.9479,1557.543 A4.1667,4.1667 0 0 0 925.7813,1561.7096" fill="none" style="stroke:#033C73;stroke-width:1.0417;"/><path d="M1119.2627,1557.543 L1119.2627,1565.8763 A2.0833,2.0833 0 0 0 1121.346,1567.9596 L1129.6794,1567.9596 L1119.2627,1557.543" fill="none" style="stroke:#033C73;stroke-width:1.0417;"/><text fill="#033C73" font-family="Arial" font-size="12.5" lengthAdjust="spacing" textLength="114.0137" x="937.2396" y="1579.5624">QR Code Security:</text><text fill="#033C73" font-family="Arial" font-size="12.5" lengthAdjust="spacing" textLength="140.6738" x="937.2396" y="1594.1132">&#8226; HMAC-signed tokens</text><text fill="#033C73" font-family="Arial" font-size="12.5" lengthAdjust="spacing" textLength="148.468" x="937.2396" y="1608.664">&#8226; 2-minute display time</text><text fill="#033C73" font-family="Arial" font-size="12.5" lengthAdjust="spacing" textLength="171.6064" x="937.2396" y="1623.2148">&#8226; 30-second crypto window</text><text fill="#033C73" font-family="Arial" font-size="12.5" lengthAdjust="spacing" textLength="166.6931" x="937.2396" y="1637.7655">&#8226; Auto-rotation with nonce</text><text fill="#033C73" font-family="Arial" font-size="12.5" lengthAdjust="spacing" textLength="161.6943" x="937.2396" y="1652.3163">&#8226; Timing-safe comparison</text></g><g class="entity" data-qualified-name="GMN71" data-source-line="108" id="ent0072"><path d="M544.3333,89.8763 L544.3333,218.7826 A4.1667,4.1667 0 0 0 548.5,222.9492 L780.3624,222.9492 A4.1667,4.1667 0 0 0 784.5291,218.7826 L784.5291,96.1263 L774.1124,85.7096 L548.5,85.7096 A4.1667,4.1667 0 0 0 544.3333,89.8763" fill="none" style="stroke:#033C73;stroke-width:1.0417;"/><path d="M774.1124,85.7096 L774.1124,94.043 A2.0833,2.0833 0 0 0 776.1957,96.1263 L784.5291,96.1263 L774.1124,85.7096" fill="none" style="stroke:#033C73;stroke-width:1.0417;"/><text fill="#033C73" font-family="Arial" font-size="12.5" lengthAdjust="spacing" textLength="139.4775" x="555.7917" y="107.7291">Adaptive Geo-fencing:</text><text fill="#033C73" font-family="Arial" font-size="12.5" lengthAdjust="spacing" textLength="120.6665" x="555.7917" y="122.2799">&#8226; Base radius: 50m</text><text fill="#033C73" font-family="Arial" font-size="12.5" lengthAdjust="spacing" textLength="124.0234" x="555.7917" y="136.8306">&#8226; Max radius: 200m</text><text fill="#033C73" font-family="Arial" font-size="12.5" lengthAdjust="spacing" textLength="207.9041" x="555.7917" y="151.3814">&#8226; Adjusts based on GPS accuracy</text><text fill="#033C73" font-family="Arial" font-size="12.5" lengthAdjust="spacing" textLength="159.6863" x="555.7917" y="165.9322">&#8226; Device type tolerances:</text><text fill="#033C73" font-family="Arial" font-size="12.5" lengthAdjust="spacing" textLength="84.9487" x="563.7384" y="180.483">- Mobile: 1.0x</text><text fill="#033C73" font-family="Arial" font-size="12.5" lengthAdjust="spacing" textLength="83.2397" x="563.7384" y="195.0338">- Tablet: 1.2x</text><text fill="#033C73" font-family="Arial" font-size="12.5" lengthAdjust="spacing" textLength="95.4956" x="563.7384" y="209.5846">- Desktop: 1.5x</text></g><g class="entity" data-qualified-name="GMN74" data-source-line="119" id="ent0075"><path d="M538.4896,2291.9076 L538.4896,2330.3659 L338.3646,2334.5326 L538.4896,2338.6992 L538.4896,2377.1615 A4.1667,4.1667 0 0 0 542.6563,2381.3281 L786.1947,2381.3281 A4.1667,4.1667 0 0 0 790.3613,2377.1615 L790.3613,2298.1576 L779.9447,2287.7409 L542.6563,2287.7409 A4.1667,4.1667 0 0 0 538.4896,2291.9076" fill="none" style="stroke:#033C73;stroke-width:1.0417;"/><path d="M779.9447,2287.7409 L779.9447,2296.0742 A2.0833,2.0833 0 0 0 782.028,2298.1576 L790.3613,2298.1576 L779.9447,2287.7409" fill="none" style="stroke:#033C73;stroke-width:1.0417;"/><text fill="#033C73" font-family="Arial" font-size="12.5" lengthAdjust="spacing" textLength="127.5391" x="549.9479" y="2309.7603">Claim Request Flow:</text><text fill="#033C73" font-family="Arial" font-size="12.5" lengthAdjust="spacing" textLength="170.0317" x="549.9479" y="2324.3111">1. Professor requests claim</text><text fill="#033C73" font-family="Arial" font-size="12.5" lengthAdjust="spacing" textLength="219.5801" x="549.9479" y="2338.8619">2. Creates ClaimRequest (pending)</text><text fill="#033C73" font-family="Arial" font-size="12.5" lengthAdjust="spacing" textLength="197.4365" x="549.9479" y="2353.4127">3. Admin reviews and approves</text><text fill="#033C73" font-family="Arial" font-size="12.5" lengthAdjust="spacing" textLength="212.7563" x="549.9479" y="2367.9635">4. Professor added to claimedBy[]</text></g><g class="entity" data-qualified-name="GMN77" data-source-line="127" id="ent0078"><path d="M144.9896,119.0013 L144.9896,218.806 A4.1667,4.1667 0 0 0 149.1563,222.9727 L364.2279,222.9727 A4.1667,4.1667 0 0 0 368.3945,218.806 L368.3945,125.2513 L357.9779,114.8346 L149.1563,114.8346 A4.1667,4.1667 0 0 0 144.9896,119.0013" fill="none" style="stroke:#033C73;stroke-width:1.0417;"/><path d="M357.9779,114.8346 L357.9779,123.168 A2.0833,2.0833 0 0 0 360.0612,125.2513 L368.3945,125.2513 L357.9779,114.8346" fill="none" style="stroke:#033C73;stroke-width:1.0417;"/><text fill="#033C73" font-family="Arial" font-size="12.5" lengthAdjust="spacing" textLength="130.0903" x="156.4479" y="136.8541">CSV Export includes:</text><text fill="#033C73" font-family="Arial" font-size="12.5" lengthAdjust="spacing" textLength="143.0481" x="156.4479" y="151.4049">&#8226; Roll No, Name, Email</text><text fill="#033C73" font-family="Arial" font-size="12.5" lengthAdjust="spacing" textLength="100.8423" x="156.4479" y="165.9556">&#8226; Total Sessions</text><text fill="#033C73" font-family="Arial" font-size="12.5" lengthAdjust="spacing" textLength="191.1133" x="156.4479" y="180.5064">&#8226; Present, Late, Absent counts</text><text fill="#033C73" font-family="Arial" font-size="12.5" lengthAdjust="spacing" textLength="158.4045" x="156.4479" y="195.0572">&#8226; Attendance Percentage</text><text fill="#033C73" font-family="Arial" font-size="12.5" lengthAdjust="spacing" textLength="137.0667" x="156.4479" y="209.608">&#8226; Session-wise details</text></g><!--link professor to UC1--><g class="link" data-entity-1="ent0002" data-entity-2="ent0005" data-link-type="dependency" data-source-line="63" id="lnk38"><path d="M48.8438,1235.3763 C54.9063,1106.4388 74.8646,724.6471 111.3542,409.5326 C114.4271,382.9909 103.3021,370.4076 120.7292,350.1576 C137.875,330.2305 158.1702,320.9054 183.066,315.1658" fill="none" id="professor-to-UC1" style="stroke:#2FA4E7;stroke-width:3.125;"/><polygon fill="#2FA4E7" points="189.1563,313.7617,179.0848,311.8077,184.081,314.9318,180.9569,319.928,189.1563,313.7617" style="stroke:#2FA4E7;stroke-width:3.125;"/></g><!--link professor to UC3--><g class="link" data-entity-1="ent0002" data-entity-2="ent0007" data-link-type="dependency" data-source-line="64" id="lnk39"><path d="M47.6979,1235.2826 C51.3646,1067.0951 67.8333,482.668 120.7292,419.9492 C142.1146,394.5846 173.0183,386.708 202.9245,384.4163" fill="none" id="professor-to-UC3" style="stroke:#2FA4E7;stroke-width:3.125;"/><polygon fill="#2FA4E7" points="209.1563,383.9388,199.4903,380.5006,203.9631,384.3367,200.127,388.8096,209.1563,383.9388" style="stroke:#2FA4E7;stroke-width:3.125;"/></g><!--link professor to UC4--><g class="link" data-entity-1="ent0002" data-entity-2="ent0008" data-link-type="dependency" data-source-line="65" id="lnk40"><path d="M46.1146,1235.3971 C44.6458,1092.9701 46.3958,654.3138 120.7292,537.6576 C146.4896,497.2305 193.4353,475 224.7999,463.4792" fill="none" id="professor-to-UC4" style="stroke:#2FA4E7;stroke-width:3.125;"/><polygon fill="#2FA4E7" points="230.6667,461.3242,220.4299,460.6455,225.7777,463.12,223.3032,468.4678,230.6667,461.3242" style="stroke:#2FA4E7;stroke-width:3.125;"/></g><!--link professor to UC5--><g class="link" data-entity-1="ent0002" data-entity-2="ent0010" data-link-type="dependency" data-source-line="66" id="lnk41"><path d="M47.6875,1325.6576 C51.3333,1494.6263 67.7396,2081.8034 120.7292,2144.9492 C135.1042,2162.0846 150.5058,2170.2506 172.1099,2175.5944" fill="none" id="professor-to-UC5" style="stroke:#2FA4E7;stroke-width:3.125;"/><polygon fill="#2FA4E7" points="178.1771,2177.0951,170.0768,2170.7992,173.1211,2175.8445,168.0759,2178.8888,178.1771,2177.0951" style="stroke:#2FA4E7;stroke-width:3.125;"/></g><!--link professor to UC6--><g class="link" data-entity-1="ent0002" data-entity-2="ent0011" data-link-type="dependency" data-source-line="67" id="lnk42"><path d="M47.3333,1325.5846 C49.7396,1503.793 62.4583,2151.0951 120.7292,2219.9492 C133.7083,2235.293 146.3455,2242.9601 165.6372,2248.731" fill="none" id="professor-to-UC6" style="stroke:#2FA4E7;stroke-width:3.125;"/><polygon fill="#2FA4E7" points="171.625,2250.5221,163.8374,2243.8435,166.6351,2249.0295,161.4491,2251.8273,171.625,2250.5221" style="stroke:#2FA4E7;stroke-width:3.125;"/></g><!--link professor to UC7--><g class="link" data-entity-1="ent0002" data-entity-2="ent0012" data-link-type="dependency" data-source-line="68" id="lnk43"><path d="M47.0208,1325.4388 C48.2396,1512.6159 57.0625,2222.2409 120.7292,2297.0326 C135.2292,2314.0638 150.6627,2322.1958 172.2669,2327.5499" fill="none" id="professor-to-UC7" style="stroke:#2FA4E7;stroke-width:3.125;"/><polygon fill="#2FA4E7" points="178.3333,2329.0534,170.2359,2322.7539,173.2779,2327.8005,168.2313,2330.8425,178.3333,2329.0534" style="stroke:#2FA4E7;stroke-width:3.125;"/></g><!--link professor to UC8--><g class="link" data-entity-1="ent0002" data-entity-2="ent0013" data-link-type="dependency" data-source-line="69" id="lnk44"><path d="M47.875,1325.4701 C51.3958,1444.418 65.8438,1763.5326 120.7292,1851.1992 C141.5417,1884.4492 174.2914,1905.1555 204.8123,1919.4992" fill="none" id="professor-to-UC8" style="stroke:#2FA4E7;stroke-width:3.125;"/><polygon fill="#2FA4E7" points="210.4688,1922.1576,203.7563,1914.399,205.755,1919.9423,200.2118,1921.941,210.4688,1922.1576" style="stroke:#2FA4E7;stroke-width:3.125;"/></g><!--link professor to UC9--><g class="link" data-entity-1="ent0002" data-entity-2="ent0014" data-link-type="dependency" data-source-line="70" id="lnk45"><path d="M48.7188,1325.4909 C55.2708,1472.043 78.8646,1928.1159 120.7292,1978.2826 C133.3229,1993.3659 145.375,2000.9997 164.1562,2006.9477" fill="none" id="professor-to-UC9" style="stroke:#2FA4E7;stroke-width:3.125;"/><polygon fill="#2FA4E7" points="170.1146,2008.8346,162.4351,2002.0319,165.1493,2007.2622,159.9191,2009.9764,170.1146,2008.8346" style="stroke:#2FA4E7;stroke-width:3.125;"/></g><!--link professor to UC10--><g class="link" data-entity-1="ent0002" data-entity-2="ent0015" data-link-type="dependency" data-source-line="71" id="lnk46"><path d="M48.2396,1325.543 C53.5625,1482.8971 74.4792,2000.4076 120.7292,2057.4492 C131.7396,2071.0326 141.215,2078.1246 157.5484,2084.6351" fill="none" id="professor-to-UC10" style="stroke:#2FA4E7;stroke-width:3.125;"/><polygon fill="#2FA4E7" points="163.3542,2086.9492,156.1883,2079.6074,158.516,2085.0207,153.1027,2087.3485,163.3542,2086.9492" style="stroke:#2FA4E7;stroke-width:3.125;"/></g><!--link professor to UC11--><g class="link" data-entity-1="ent0002" data-entity-2="ent0017" data-link-type="dependency" data-source-line="72" id="lnk47"><path d="M80.4896,1298.5013 C92.9167,1304.793 107.2604,1311.5742 120.7292,1316.8242 C143.5833,1325.7409 163.2777,1332.0499 186.0694,1338.4978" fill="none" id="professor-to-UC11" style="stroke:#2FA4E7;stroke-width:3.125;"/><polygon fill="#2FA4E7" points="192.0833,1340.1992,184.1966,1333.6378,187.0717,1338.7814,181.9281,1341.6564,192.0833,1340.1992" style="stroke:#2FA4E7;stroke-width:3.125;"/></g><!--link professor to UC16--><g class="link" data-entity-1="ent0002" data-entity-2="ent0022" data-link-type="dependency" data-source-line="73" id="lnk48"><path d="M66.0208,1325.6576 C78.375,1349.7721 96.6563,1378.0638 120.7292,1395.9909 C138.5104,1409.2305 154.6627,1416.304 175.871,1422.0123" fill="none" id="professor-to-UC16" style="stroke:#2FA4E7;stroke-width:3.125;"/><polygon fill="#2FA4E7" points="181.9063,1423.6367,173.9364,1417.1766,176.8769,1422.283,171.7705,1425.2236,181.9063,1423.6367" style="stroke:#2FA4E7;stroke-width:3.125;"/></g><!--link professor to UC17--><g class="link" data-entity-1="ent0002" data-entity-2="ent0023" data-link-type="dependency" data-source-line="74" id="lnk49"><path d="M52.1354,1325.2617 C59.7292,1369.2201 77.8958,1434.9701 120.7292,1473.0742 C139.9583,1490.1888 160.3932,1497.8898 184.8828,1502.3585" fill="none" id="professor-to-UC17" style="stroke:#2FA4E7;stroke-width:3.125;"/><polygon fill="#2FA4E7" points="191.0313,1503.4805,182.5565,1497.6986,185.9075,1502.5455,181.0606,1505.8965,191.0313,1503.4805" style="stroke:#2FA4E7;stroke-width:3.125;"/></g><!--link professor to UC18--><g class="link" data-entity-1="ent0002" data-entity-2="ent0024" data-link-type="dependency" data-source-line="75" id="lnk50"><path d="M67.4167,1235.3346 C79.8542,1212.8763 97.7604,1187.1471 120.7292,1170.9909 C143.8646,1154.7201 167.8736,1147.2071 193.8215,1142.6967" fill="none" id="professor-to-UC18" style="stroke:#2FA4E7;stroke-width:3.125;"/><polygon fill="#2FA4E7" points="199.9792,1141.6263,190.0291,1139.1267,194.8478,1142.5183,191.4562,1147.337,199.9792,1141.6263" style="stroke:#2FA4E7;stroke-width:3.125;"/></g><!--link professor to UC19--><g class="link" data-entity-1="ent0002" data-entity-2="ent0025" data-link-type="dependency" data-source-line="76" id="lnk51"><path d="M80.4271,1262.0742 C92.8542,1255.7617 107.2083,1249.0117 120.7292,1243.9076 C146.0417,1234.3451 168.8341,1227.7217 193.3445,1221.5655" fill="none" id="professor-to-UC19" style="stroke:#2FA4E7;stroke-width:3.125;"/><polygon fill="#2FA4E7" points="199.4063,1220.043,189.2987,1218.2856,194.3548,1221.3117,191.3287,1226.3679,199.4063,1220.043" style="stroke:#2FA4E7;stroke-width:3.125;"/></g><!--link professor to UC20--><g class="link" data-entity-1="ent0002" data-entity-2="ent0026" data-link-type="dependency" data-source-line="77" id="lnk52"><path d="M80.375,1280.3659 C106.8958,1280.3659 138.7083,1280.3659 172.5938,1280.3659" fill="none" id="professor-to-UC20" style="stroke:#2FA4E7;stroke-width:3.125;"/><polygon fill="#2FA4E7" points="178.8438,1280.3659,169.4688,1276.1992,173.6354,1280.3659,169.4688,1284.5326,178.8438,1280.3659" style="stroke:#2FA4E7;stroke-width:3.125;"/></g><!--link professor to UC21--><g class="link" data-entity-1="ent0002" data-entity-2="ent0028" data-link-type="dependency" data-source-line="78" id="lnk53"><path d="M47.5938,1235.168 C50.3854,1125.8346 63.0833,851.1055 120.7292,783.4909 C134.6771,767.1263 148.879,758.7926 169.3894,752.5009" fill="none" id="professor-to-UC21" style="stroke:#2FA4E7;stroke-width:3.125;"/><polygon fill="#2FA4E7" points="175.3646,750.668,165.1799,749.4339,170.3853,752.1954,167.6237,757.4008,175.3646,750.668" style="stroke:#2FA4E7;stroke-width:3.125;"/></g><!--link professor to UC22--><g class="link" data-entity-1="ent0002" data-entity-2="ent0029" data-link-type="dependency" data-source-line="79" id="lnk54"><path d="M49.0729,1235.3555 C54.75,1139.8138 72.7813,921.0534 120.7292,866.8242 C134.5313,851.2096 148.0725,843.2286 167.9787,837.0515" fill="none" id="professor-to-UC22" style="stroke:#2FA4E7;stroke-width:3.125;"/><polygon fill="#2FA4E7" points="173.9479,835.1992,163.7592,833.9982,168.9736,836.7428,166.229,841.9571,173.9479,835.1992" style="stroke:#2FA4E7;stroke-width:3.125;"/></g><!--link professor to UC23--><g class="link" data-entity-1="ent0002" data-entity-2="ent0030" data-link-type="dependency" data-source-line="80" id="lnk55"><path d="M46.3125,1235.1367 C45.875,1112.7409 51.2396,778.8867 120.7292,699.1159 C134.8646,682.8867 149.3007,675.0025 170.0611,669.5233" fill="none" id="professor-to-UC23" style="stroke:#2FA4E7;stroke-width:3.125;"/><polygon fill="#2FA4E7" points="176.1042,667.9284,165.9763,666.292,171.0683,669.2575,168.1028,674.3495,176.1042,667.9284" style="stroke:#2FA4E7;stroke-width:3.125;"/></g><!--link professor to UC24--><g class="link" data-entity-1="ent0002" data-entity-2="ent0031" data-link-type="dependency" data-source-line="81" id="lnk56"><path d="M51.4375,1235.2721 C60.4896,1155.3242 83.0521,993.2617 120.7292,952.2409 C138.1771,933.2409 157.9346,924.1019 182.3408,918.2165" fill="none" id="professor-to-UC24" style="stroke:#2FA4E7;stroke-width:3.125;"/><polygon fill="#2FA4E7" points="188.4167,916.7513,178.3261,914.8985,183.3535,917.9723,180.2797,922.9996,188.4167,916.7513" style="stroke:#2FA4E7;stroke-width:3.125;"/></g><!--link professor to UC25--><g class="link" data-entity-1="ent0002" data-entity-2="ent0032" data-link-type="dependency" data-source-line="82" id="lnk57"><path d="M49,1235.4701 C56.2083,1095.0326 81.0938,670.6471 120.7292,624.1159 C137.5,604.4284 157.1377,595.0192 181.6377,589.0192" fill="none" id="professor-to-UC25" style="stroke:#2FA4E7;stroke-width:3.125;"/><polygon fill="#2FA4E7" points="187.7083,587.5326,177.6113,585.7155,182.6495,588.7715,179.5935,593.8096,187.7083,587.5326" style="stroke:#2FA4E7;stroke-width:3.125;"/></g><!--link professor to UC26--><g class="link" data-entity-1="ent0002" data-entity-2="ent0034" data-link-type="dependency" data-source-line="83" id="lnk58"><path d="M52.7396,1325.3451 C61.3542,1379.4284 80.8542,1471.543 120.7292,1540.7826 C147.3021,1586.9284 187.6746,1625.2728 218.3621,1650.9394" fill="none" id="professor-to-UC26" style="stroke:#2FA4E7;stroke-width:3.125;"/><polygon fill="#2FA4E7" points="223.1563,1654.9492,218.6382,1645.7384,219.1611,1651.6077,213.2918,1652.1306,223.1563,1654.9492" style="stroke:#2FA4E7;stroke-width:3.125;"/></g><!--link admin to UC2--><g class="link" data-entity-1="ent0003" data-entity-2="ent0006" data-link-type="dependency" data-source-line="86" id="lnk59"><path d="M286.25,1007.0951 C316,997.8763 362.4375,979.8034 392.6563,950.1576 C552.7292,793.168 632.8844,527.7812 655.3011,443.4271" fill="none" id="admin-to-UC2" style="stroke:#2FA4E7;stroke-width:3.125;"/><polygon fill="#2FA4E7" points="656.9063,437.3867,650.4716,445.3771,655.5686,442.4203,658.5254,447.5174,656.9063,437.3867" style="stroke:#2FA4E7;stroke-width:3.125;"/><text fill="#343A40" font-family="Arial" font-size="12.5" lengthAdjust="spacing" textLength="57.9163" x="425.4688" y="800.302">approves</text></g><!--link UC1 to UC2--><g class="link" data-entity-1="ent0005" data-entity-2="ent0006" data-link-type="dependency" data-source-line="89" id="lnk60"><path d="M313.7188,321.8242 C386.9583,340.6367 509.2172,372.0304 588.3734,392.3533" fill="none" id="UC1-to-UC2" style="stroke:#2FA4E7;stroke-width:3.125;stroke-dasharray:7.2917,7.2917;"/><polygon fill="#2FA4E7" points="594.4271,393.9076,586.3828,387.5404,589.3824,392.6123,584.3104,395.612,594.4271,393.9076" style="stroke:#2FA4E7;stroke-width:3.125;"/><text fill="#343A40" font-family="Arial" font-size="12.5" lengthAdjust="spacing" textLength="58.8318" x="424.7506" y="325.302">&#171;extend&#187;</text><text fill="#343A40" font-family="Arial" font-size="12.5" lengthAdjust="spacing" textLength="93.8538" x="407.2396" y="339.8528">First time login</text></g><!--link UC11 to UC12--><g class="link" data-entity-1="ent0017" data-entity-2="ent0018" data-link-type="dependency" data-source-line="90" id="lnk61"><path d="M321.3646,1372.5846 C346.1458,1378.6367 374.8229,1385.3659 400.9896,1390.7826 C456.8021,1402.3451 513.5326,1412.3715 563.7514,1420.7257" fill="none" id="UC11-to-UC12" style="stroke:#2FA4E7;stroke-width:3.125;stroke-dasharray:7.2917,7.2917;"/><polygon fill="#2FA4E7" points="569.9167,1421.7513,561.3525,1416.1027,564.7789,1420.8966,559.985,1424.323,569.9167,1421.7513" style="stroke:#2FA4E7;stroke-width:3.125;"/><text fill="#343A40" font-family="Arial" font-size="12.5" lengthAdjust="spacing" textLength="60.5835" x="423.9063" y="1382.5937">&#171;include&#187;</text></g><!--link UC11 to UC13--><g class="link" data-entity-1="ent0017" data-entity-2="ent0019" data-link-type="dependency" data-source-line="91" id="lnk62"><path d="M352.3333,1356.4076 C425.6042,1356.4076 519.2917,1356.4076 585.9063,1356.4076" fill="none" id="UC11-to-UC13" style="stroke:#2FA4E7;stroke-width:3.125;stroke-dasharray:7.2917,7.2917;"/><polygon fill="#2FA4E7" points="592.1563,1356.4076,582.7813,1352.2409,586.9479,1356.4076,582.7813,1360.5742,592.1563,1356.4076" style="stroke:#2FA4E7;stroke-width:3.125;"/><text fill="#343A40" font-family="Arial" font-size="12.5" lengthAdjust="spacing" textLength="60.5835" x="423.9063" y="1348.2187">&#171;include&#187;</text></g><!--link UC13 to UC14--><g class="link" data-entity-1="ent0019" data-entity-2="ent0020" data-link-type="dependency" data-source-line="92" id="lnk63"><path d="M711.8438,1369.5221 C742.6771,1377.5951 784.2292,1387.2513 821.6146,1391.8242 C870.5729,1397.8138 920.334,1398.6333 961.4277,1398.0395" fill="none" id="UC13-to-UC14" style="stroke:#2FA4E7;stroke-width:3.125;stroke-dasharray:7.2917,7.2917;"/><polygon fill="#2FA4E7" points="967.6771,1397.9492,958.2429,1393.9184,962.4693,1398.0245,958.3633,1402.2509,967.6771,1397.9492" style="stroke:#2FA4E7;stroke-width:3.125;"/><text fill="#343A40" font-family="Arial" font-size="12.5" lengthAdjust="spacing" textLength="60.5835" x="827.8646" y="1383.6353">&#171;include&#187;</text></g><!--link UC13 to UC15--><g class="link" data-entity-1="ent0019" data-entity-2="ent0021" data-link-type="dependency" data-source-line="93" id="lnk64"><path d="M729.6354,1349.0013 C791.0625,1341.918 877.6141,1331.936 943.1036,1324.384" fill="none" id="UC13-to-UC15" style="stroke:#2FA4E7;stroke-width:3.125;stroke-dasharray:7.2917,7.2917;"/><polygon fill="#2FA4E7" points="949.3125,1323.668,939.5219,1320.6027,944.1385,1324.2646,940.4765,1328.8812,949.3125,1323.668" style="stroke:#2FA4E7;stroke-width:3.125;"/><text fill="#343A40" font-family="Arial" font-size="12.5" lengthAdjust="spacing" textLength="58.8318" x="828.9063" y="1323.2187">&#171;extend&#187;</text></g><!--link UC26 to UC27--><g class="link" data-entity-1="ent0034" data-entity-2="ent0035" data-link-type="dependency" data-source-line="94" id="lnk65"><path d="M332.0417,1699.043 C354.1042,1703.918 378.4063,1708.6367 400.9896,1711.6159 C468.6979,1720.5534 540.7298,1723.2259 594.0527,1723.9759" fill="none" id="UC26-to-UC27" style="stroke:#2FA4E7;stroke-width:3.125;stroke-dasharray:7.2917,7.2917;"/><polygon fill="#2FA4E7" points="600.3021,1724.0638,590.9866,1719.7657,595.0943,1723.9906,590.8694,1728.0982,600.3021,1724.0638" style="stroke:#2FA4E7;stroke-width:3.125;"/><text fill="#343A40" font-family="Arial" font-size="12.5" lengthAdjust="spacing" textLength="60.5835" x="423.9063" y="1703.427">&#171;include&#187;</text></g><!--link UC26 to UC28--><g class="link" data-entity-1="ent0034" data-entity-2="ent0036" data-link-type="dependency" data-source-line="95" id="lnk66"><path d="M353.3542,1669.8034 C428.8958,1661.4701 526.0691,1650.7398 592.2461,1643.4273" fill="none" id="UC26-to-UC28" style="stroke:#2FA4E7;stroke-width:3.125;stroke-dasharray:7.2917,7.2917;"/><polygon fill="#2FA4E7" points="598.4583,1642.7409,588.6824,1639.6291,593.2815,1643.3129,589.5977,1647.912,598.4583,1642.7409" style="stroke:#2FA4E7;stroke-width:3.125;"/><text fill="#343A40" font-family="Arial" font-size="12.5" lengthAdjust="spacing" textLength="60.5835" x="423.9063" y="1646.1353">&#171;include&#187;</text></g><!--link UC26 to UC29--><g class="link" data-entity-1="ent0034" data-entity-2="ent0037" data-link-type="dependency" data-source-line="96" id="lnk67"><path d="M297.4479,1704.9596 C325.4688,1721.3451 364.3958,1742.2201 400.9896,1755.3659 C465.0625,1778.3763 535.3978,1792.1512 589.2103,1800.5575" fill="none" id="UC26-to-UC29" style="stroke:#2FA4E7;stroke-width:3.125;stroke-dasharray:7.2917,7.2917;"/><polygon fill="#2FA4E7" points="595.3854,1801.5221,586.7658,1795.9584,590.2395,1800.7183,585.4797,1804.1919,595.3854,1801.5221" style="stroke:#2FA4E7;stroke-width:3.125;"/><text fill="#343A40" font-family="Arial" font-size="12.5" lengthAdjust="spacing" textLength="60.5835" x="423.9063" y="1747.177">&#171;include&#187;</text></g><!--link UC13 to GMN68--><g class="link" data-entity-1="ent0019" data-entity-2="ent0069" data-link-type="association" data-source-line="99" id="lnk70"><path d="M724.5208,1366.0638 C746.3229,1371.3971 770.5313,1379.543 790.3646,1391.8242 C866.4271,1438.9492 858.6667,1481.6159 925.7813,1540.7826 C932.0417,1546.3034 938.7396,1551.7826 945.5938,1557.1159" fill="none" id="UC13-GMN68" style="stroke:#2FA4E7;stroke-width:3.125;stroke-dasharray:7.2917,7.2917;"/></g><!--link UC29 to GMN71--><g class="link" data-entity-1="ent0037" data-entity-2="ent0072" data-link-type="association" data-source-line="108" id="lnk73"><path d="M590.6354,1809.0326 C546.7396,1803.8346 494.1771,1789.168 465.5729,1750.6784 C368.4375,1619.9701 388.2708,428.3867 465.5729,285.0534 C483.2292,252.3242 513.0417,226.4492 544.2917,206.6576" fill="none" id="UC29-GMN71" style="stroke:#2FA4E7;stroke-width:3.125;stroke-dasharray:7.2917,7.2917;"/></g><!--link UC23 to GMN77--><g class="link" data-entity-1="ent0030" data-entity-2="ent0078" data-link-type="association" data-source-line="127" id="lnk79"><path d="M174.7813,656.1471 C144,649.1784 113.3229,634.8242 100.4167,605.8867 C85.8854,573.3346 85.8854,317.6055 100.4167,285.0534 C111.3646,260.5117 130.5833,240.0117 151.8854,223.4076" fill="none" id="UC23-GMN77" style="stroke:#2FA4E7;stroke-width:3.125;stroke-dasharray:7.2917,7.2917;"/></g><!--SRC=[ZLVDRkCs4BxhAQR9eRj0xDZoVx088Cjszf0iKZlP7feU68bssCYabgJY64M1VO6Yw1Ciq5E1ljK-mJv2XvAeo9OSx2MEPxwFyyCPplW7_K3N508gauWItX29ZXYdZdfaF2QIh844MiY5taOKo8OgiIuhOn8yaXNDr986cl1LL0OaYWP4qJ7YLb8aFFH592GSJuUpxcnI0nGof387TNrlrclj-r8vonzE-_we0dlr9FL0Gh5XV0LB4gcono5TaYJICy7r1uAfyIGZaUDefZ74Rr_-_lVhvp-_VVdhF_Xf3fxMb8U41nGMMwNf6XfmBSMIAeLMRnK57sDIZXFHfGOjGBBLWuQGcLGnmHqdTHME2j8H40LnSSHnlpyUzpqByy8ruoc4cF_WU3ORjBeTnobIZvW4hvHh5X1ZuGX-Ty0c5uuknGff6wOVu488nD_nDnxVmdHDMFGsFVdMRyFnU3oPpiPbvi-4QLYY4waFuCNev1E9a7-DAJ29B6AmvxZ6FtyoSSldV6Hqaq9PH7DSfyuUUegrc2Ew1UAFdLXzaKW4Nn6EHRZ6gFV2JOtv4M5h6a86LlcHlQ9kIlYn51lyz9um6-GUBUno-dMSEVsKKALpQ6Ojnm- -0t_BWn9ZMCTuYG8iUQ69JgnRephIRHmIRGE01TKQxqZXTIs21nfYiv_0fSXgv0Jc96I9Akw_LHouc-u5NY_Y3-VRbzGOBRT5Hh4djqr9p4P-TuSb-9Aj4bcWo-w-E3b9PBsxRjsX5vHJQPp1DlL5Q6kjtQa3fncUKn8rD9RA7KVEXAau8bjBwzRHPa9YY7Ewb5Gz64Ctuf4MiVRgA5U2CzFAb-ofd2VBwTTn5bh4frCUxYTpK9jCSroq3nqUZDh3X-YfoBmjgVRe8C7UqNkcC12R8BTL47PhfbGB7YVH5XycLTkbMQ6-mE_udCP2sYV0nTAPjiVJwU2WHsNkX6hiOHkEwzQHfy_c_7Ar-ekFbj4vR4ud8PP-OyCK6ghSeTizp4nKp08c4bNcmImYgyBJNi7UxxqWaKnlYzxORxrI4-N8I_f4pGEDZmLQak7fGaiMwDDhd7DSiB1uf_jr3_MKcnVm5Fl0V9gCFZ5qTipIrzvI1zz3jJsyJnxMaLy2yK8Ic-AyunTKD9QK1oNkgE1YdduiJTr0S9vDL-My3D96uzoKTKNIgKYw5Kcl8kbN98EAP5YHZAh-jAgYge_jghbsrLwxQh1TjUXMBRfLYwvR5LKpvLPJvLPpvVRD_MHR0qct1bhQS9niaScXS5P036b2O-mHS-_utUmbpQQ5lNj7dqq3dP_VyHcJE1BDomsHsM-STD1as7O6PZXbiMlFptTqdQgkOtNTLtIz7GUSj8DormOLsejk-8fkjATpkC3PbQsBOfawYqsIpxAYnSzGzlNpF_3-olCRYgquhZdQp22LAzm6PZV1ay9idALPodMTLWDxJk1S2UGsnkKKrs7SYNCjhf6Y8ONE6ZVT6Bd0rofNtp0yUDLGP8a_7iGQLsUcS9_5X83nFFV_NcWjrba0hbbFR4j3gQDj46FJ_Z8TxMVGQwrpyHLvBgHkgn1xuM-9qWhkaHK2kdXnlS357_D2WcsEoPyilOtnZuXm7y00bB47kAXVYNlSGS-WtMmzvw8Ryrvf8tAjQ4BL8yvV8-izxyTNkX_psk_kQBD8R8ojThFqEibCgI3T-b3hDY7RcbH6j-mtSRPMlqLCfvdtZyI0w0QtVtIZQ1I0Rja22SEq2Z8BD1nlV_drrNinXOM33_9ncDUWijSo5r447yG9c5z39zal1Li4M1x5gc5BxXgN8HoFk5vYK2VWtPjlM2C9rnPIcdtN55Sehd6Tp7NvQUbqnTzYwHGltFyV]--></g></svg>