<svg xmlns="http://www.w3.org/2000/svg" xmlns:xlink="http://www.w3.org/1999/xlink" contentStyleType="text/css" data-diagram-type="DESCRIPTION" height="1534.375px" preserveAspectRatio="none" style="width:1395px;height:1534px;" version="1.1" viewBox="0 0 1395 1534" width="1395.8333px" zoomAndPan="magnify"><title>&#127891; QR Attendance System - Student Use Cases</title><defs/><g><g class="title" data-source-line="11"><rect fill="none" height="47.168" rx="4.1667" ry="4.1667" style="stroke:#BABDBF;stroke-width:1.0417;" width="556.0079" x="415.5955" y="20.8333"/><text fill="#2FA4E7" font-family="Arial" font-size="20.8333" font-weight="bold" lengthAdjust="spacing" textLength="533.0912" x="427.0538" y="51.6296">&#127891; QR Attendance System - Student Use Cases</text></g><!--cluster Authentication--><g class="cluster" data-qualified-name="Authentication" data-source-line="17" id="ent0003"><rect fill="none" height="250" rx="4.1667" ry="4.1667" style="stroke:#2FA4E7;stroke-width:2.0833;" width="183.9583" x="168.8967" y="764.8138"/><text fill="#2FA4E7" font-family="Arial" font-size="12.5" font-weight="bold" lengthAdjust="spacing" textLength="104.6753" x="208.5382" y="783.7083">Authentication</text></g><!--cluster Course Management--><g class="cluster" data-qualified-name="Course Management" data-source-line="23" id="ent0007"><rect fill="none" height="264.5833" rx="4.1667" ry="4.1667" style="stroke:#2FA4E7;stroke-width:2.0833;" width="266.875" x="127.4384" y="181.4805"/><text fill="#2FA4E7" font-family="Arial" font-size="12.5" font-weight="bold" lengthAdjust="spacing" textLength="145.105" x="188.3234" y="200.3749">Course Management</text></g><!--cluster Attendance Workflow--><g class="cluster" data-qualified-name="Attendance Workflow" data-source-line="29" id="ent0011"><rect fill="none" height="268.75" rx="4.1667" ry="4.1667" style="stroke:#2FA4E7;stroke-width:2.0833;" width="1197.0521" x="188.0634" y="471.0638"/><text fill="#2FA4E7" font-family="Arial" font-size="12.5" font-weight="bold" lengthAdjust="spacing" textLength="152.2339" x="710.4725" y="489.9583">Attendance Workflow</text></g><!--cluster History & Analytics--><g class="cluster" data-qualified-name="History . Analytics" data-source-line="38" id="ent0018"><rect fill="none" height="269.7917" rx="4.1667" ry="4.1667" style="stroke:#2FA4E7;stroke-width:2.0833;" width="234.625" x="143.5634" y="1039.8138"/><text fill="#2FA4E7" font-family="Arial" font-size="12.5" font-weight="bold" lengthAdjust="spacing" textLength="135.2173" x="193.2673" y="1058.7083">History &amp; Analytics</text></g><!--cluster Device Management--><g class="cluster" data-qualified-name="Device Management" data-source-line="44" id="ent0022"><rect fill="none" height="188.5417" rx="4.1667" ry="4.1667" style="stroke:#2FA4E7;stroke-width:2.0833;" width="210.625" x="155.5634" y="1334.6055"/><text fill="#2FA4E7" font-family="Arial" font-size="12.5" font-weight="bold" lengthAdjust="spacing" textLength="143.5364" x="189.1077" y="1353.4999">Device Management</text></g><!--entity UC1--><g class="entity" data-qualified-name="Authentication.UC1" data-source-line="18" id="ent0004"><ellipse cx="260.8741" cy="834.6075" fill="#BBDEFB" rx="75.3107" ry="26.3353" style="stroke:#2196F3;stroke-width:2.0833;"/><text fill="#2FA4E7" font-family="Arial" font-size="12.5" lengthAdjust="spacing" textLength="112.4878" x="204.6302" y="830.9635">Login with Google</text><text fill="#2FA4E7" font-family="Arial" font-size="12.5" lengthAdjust="spacing" textLength="112.4695" x="204.6394" y="845.5142">(MNIT Email Only)</text></g><!--entity UC2--><g class="entity" data-qualified-name="Authentication.UC2" data-source-line="19" id="ent0005"><ellipse cx="260.8761" cy="913.777" fill="#BBDEFB" rx="47.1356" ry="16.2549" style="stroke:#2196F3;stroke-width:2.0833;"/><text fill="#2FA4E7" font-family="Arial" font-size="12.5" lengthAdjust="spacing" textLength="73.2727" x="224.2397" y="917.4066">View Profile</text></g><!--entity UC3--><g class="entity" data-qualified-name="Authentication.UC3" data-source-line="20" id="ent0006"><ellipse cx="260.8769" cy="982.523" fill="#BBDEFB" rx="29.6781" ry="15.5321" style="stroke:#2196F3;stroke-width:2.0833;"/><text fill="#2FA4E7" font-family="Arial" font-size="12.5" lengthAdjust="spacing" textLength="43.0176" x="239.3681" y="986.1525">Logout</text></g><!--entity UC4--><g class="entity" data-qualified-name="Course Management.UC4" data-source-line="24" id="ent0008"><ellipse cx="260.8762" cy="327.3139" fill="#C8E6C9" rx="116.7711" ry="25.8542" style="stroke:#2196F3;stroke-width:2.0833;"/><text fill="#2FA4E7" font-family="Arial" font-size="12.5" lengthAdjust="spacing" textLength="139.2151" x="191.2686" y="320.2519">View Enrolled Courses</text><text fill="#2FA4E7" font-family="Arial" font-size="12.5" lengthAdjust="spacing" textLength="198.1506" x="161.8009" y="334.8027">(Auto-matched by Branch/Year)</text></g><!--entity UC5--><g class="entity" data-qualified-name="Course Management.UC5" data-source-line="25" id="ent0009"><ellipse cx="260.8732" cy="409.607" fill="#C8E6C9" rx="84.8514" ry="19.4703" style="stroke:#2196F3;stroke-width:2.0833;"/><text fill="#2FA4E7" font-family="Arial" font-size="12.5" lengthAdjust="spacing" textLength="146.3684" x="187.689" y="413.2366">View Weekly Timetable</text></g><!--entity UC6--><g class="entity" data-qualified-name="Course Management.UC6" data-source-line="26" id="ent0010"><ellipse cx="260.8709" cy="245.017" fill="#C8E6C9" rx="87.5263" ry="20.0053" style="stroke:#2196F3;stroke-width:2.0833;"/><text fill="#2FA4E7" font-family="Arial" font-size="12.5" lengthAdjust="spacing" textLength="152.3193" x="184.7113" y="248.6465">Request Elective Course</text></g><!--entity UC7--><g class="entity" data-qualified-name="Attendance Workflow.UC7" data-source-line="30" id="ent0012"><ellipse cx="260.8736" cy="650.2308" fill="#FFF9C4" rx="56.1435" ry="16.4587" style="stroke:#2196F3;stroke-width:2.0833;"/><text fill="#2FA4E7" font-family="Arial" font-size="12.5" lengthAdjust="spacing" textLength="88.8611" x="216.443" y="653.8604">Scan QR Code</text></g><!--entity UC8--><g class="entity" data-qualified-name="Attendance Workflow.UC8" data-source-line="31" id="ent0013"><ellipse cx="632.4348" cy="613.7735" fill="#FFF9C4" rx="93.0276" ry="21.1055" style="stroke:#2196F3;stroke-width:2.0833;"/><text fill="#2FA4E7" font-family="Arial" font-size="12.5" lengthAdjust="spacing" textLength="164.4287" x="550.2204" y="617.4031">Grant Location Permission</text></g><!--entity UC9--><g class="entity" data-qualified-name="Attendance Workflow.UC9" data-source-line="32" id="ent0014"><ellipse cx="632.4377" cy="697.1061" fill="#FFF9C4" rx="98.1452" ry="25.5631" style="stroke:#2196F3;stroke-width:2.0833;"/><text fill="#2FA4E7" font-family="Arial" font-size="12.5" lengthAdjust="spacing" textLength="129.2725" x="567.8015" y="691.5641">Collect GPS Samples</text><text fill="#2FA4E7" font-family="Arial" font-size="12.5" lengthAdjust="spacing" textLength="156.9336" x="553.9709" y="706.1149">(Multi-sample Validation)</text></g><!--entity UC10--><g class="entity" data-qualified-name="Attendance Workflow.UC10" data-source-line="33" id="ent0015"><ellipse cx="632.4381" cy="535.6429" fill="#FFF9C4" rx="92.0101" ry="20.902" style="stroke:#2196F3;stroke-width:2.0833;"/><text fill="#2FA4E7" font-family="Arial" font-size="12.5" lengthAdjust="spacing" textLength="162.2009" x="551.3377" y="539.2725">Collect Device Fingerprint</text></g><!--entity UC11--><g class="entity" data-qualified-name="Attendance Workflow.UC11" data-source-line="34" id="ent0016"><ellipse cx="954.7174" cy="668.9821" fill="#FFF9C4" rx="73.4457" ry="17.1891" style="stroke:#2196F3;stroke-width:2.0833;"/><text fill="#2FA4E7" font-family="Arial" font-size="12.5" lengthAdjust="spacing" textLength="120.3613" x="894.5367" y="672.6117">Submit Attendance</text></g><!--entity UC12--><g class="entity" data-qualified-name="Attendance Workflow.UC12" data-source-line="35" id="ent0017"><ellipse cx="1266.0079" cy="668.98" fill="#FFF9C4" rx="102.4341" ry="26.2912" style="stroke:#2196F3;stroke-width:2.0833;"/><text fill="#2FA4E7" font-family="Arial" font-size="12.5" lengthAdjust="spacing" textLength="149.762" x="1191.1269" y="664.6682">View Attendance Status</text><text fill="#2FA4E7" font-family="Arial" font-size="12.5" lengthAdjust="spacing" textLength="158.9905" x="1186.5127" y="679.219">(Present/Late/Suspicious)</text></g><!--entity UC13--><g class="entity" data-qualified-name="History . Analytics.UC13" data-source-line="39" id="ent0019"><ellipse cx="260.8736" cy="1103.3509" fill="#E1BEE7" rx="88.4665" ry="20.1933" style="stroke:#2196F3;stroke-width:2.0833;"/><text fill="#2FA4E7" font-family="Arial" font-size="12.5" lengthAdjust="spacing" textLength="154.4006" x="183.6733" y="1106.9804">View Attendance History</text></g><!--entity UC14--><g class="entity" data-qualified-name="History . Analytics.UC14" data-source-line="40" id="ent0020"><ellipse cx="260.8747" cy="1185.6501" fill="#E1BEE7" rx="85.6967" ry="25.3467" style="stroke:#2196F3;stroke-width:2.0833;"/><text fill="#2FA4E7" font-family="Arial" font-size="12.5" lengthAdjust="spacing" textLength="109.9609" x="205.8942" y="1179.9758">View Course-wise</text><text fill="#2FA4E7" font-family="Arial" font-size="12.5" lengthAdjust="spacing" textLength="136.4258" x="192.6618" y="1194.5265">Attendance Summary</text></g><!--entity UC15--><g class="entity" data-qualified-name="History . Analytics.UC15" data-source-line="41" id="ent0021"><ellipse cx="260.8781" cy="1270.0267" fill="#E1BEE7" rx="100.6481" ry="22.6296" style="stroke:#2196F3;stroke-width:2.0833;"/><text fill="#2FA4E7" font-family="Arial" font-size="12.5" lengthAdjust="spacing" textLength="180.9692" x="170.3935" y="1273.6563">View Attendance Percentage</text></g><!--entity UC16--><g class="entity" data-qualified-name="Device Management.UC16" data-source-line="45" id="ent0023"><ellipse cx="260.8731" cy="1404.3972" fill="#FFCDD2" rx="67.6534" ry="26.0626" style="stroke:#2196F3;stroke-width:2.0833;"/><text fill="#2FA4E7" font-family="Arial" font-size="12.5" lengthAdjust="spacing" textLength="98.7488" x="211.4987" y="1400.5339">Register Device</text><text fill="#2FA4E7" font-family="Arial" font-size="12.5" lengthAdjust="spacing" textLength="100.7568" x="210.4947" y="1415.0847">(Max 3 Devices)</text></g><!--entity UC17--><g class="entity" data-qualified-name="Device Management.UC17" data-source-line="46" id="ent0024"><ellipse cx="260.876" cy="1486.6888" fill="#FFCDD2" rx="88.646" ry="20.2292" style="stroke:#2196F3;stroke-width:2.0833;"/><text fill="#2FA4E7" font-family="Arial" font-size="12.5" lengthAdjust="spacing" textLength="154.7974" x="183.4774" y="1490.3184">View Registered Devices</text></g><!--entity student--><g class="entity" data-qualified-name="student" data-source-line="15" id="ent0002"><ellipse cx="44.7917" cy="928.3763" fill="#FFA726" rx="16.6667" ry="16.6667" style="stroke:#FF9800;stroke-width:1.0417;"/><path d="M44.7917,949.2096 C48.9583,949.2096 52.0833,949.2096 56.25,945.043 C64.5833,945.043 72.9167,953.3763 72.9167,961.7096 L72.9167,965.8763 C72.9167,970.043 68.75,974.2096 64.5833,974.2096 L25,974.2096 C20.8333,974.2096 16.6667,970.043 16.6667,965.8763 L16.6667,961.7096 C16.6667,953.3763 25,945.043 33.3333,945.043 C37.5,949.2096 40.625,949.2096 44.7917,949.2096" fill="#FFA726" style="stroke:#FF9800;stroke-width:1.0417;"/><text fill="#2FA4E7" font-family="Arial" font-size="12.5" lengthAdjust="spacing" textLength="49.2065" x="20.1884" y="992.0624">Student</text></g><g class="entity" data-qualified-name="GMN43" data-source-line="74" id="ent0044"><path d="M525.7196,770.1576 L525.7196,830.4388 L336.6884,834.6055 L525.7196,838.7721 L525.7196,899.0638 A4.1667,4.1667 0 0 0 529.8863,903.2305 L734.997,903.2305 A4.1667,4.1667 0 0 0 739.1637,899.0638 L739.1637,776.4076 L728.747,765.9909 L529.8863,765.9909 A4.1667,4.1667 0 0 0 525.7196,770.1576" fill="none" style="stroke:#033C73;stroke-width:1.0417;"/><path d="M728.747,765.9909 L728.747,774.3242 A2.0833,2.0833 0 0 0 730.8303,776.4076 L739.1637,776.4076 L728.747,765.9909" fill="none" style="stroke:#033C73;stroke-width:1.0417;"/><text fill="#033C73" font-family="Arial" font-size="12.5" lengthAdjust="spacing" textLength="181.1523" x="537.178" y="788.0103">Student email must end with</text><text fill="#033C73" font-family="Arial" font-size="12.5" lengthAdjust="spacing" textLength="124.9573" x="537.178" y="802.5611">@mnit.ac.in format:</text><text fill="#033C73" font-family="Arial" font-size="12.5" lengthAdjust="spacing" textLength="161.2" x="537.178" y="817.1119">2024ucp1566@mnit.ac.in</text><text fill="#033C73" font-family="Arial" font-size="12.5" lengthAdjust="spacing" textLength="3.9734" x="537.178" y="831.6627">&#160;</text><text fill="#033C73" font-family="Arial" font-size="12.5" lengthAdjust="spacing" textLength="144.4885" x="537.178" y="846.2135">Email parsing extracts:</text><text fill="#033C73" font-family="Arial" font-size="12.5" lengthAdjust="spacing" textLength="153.186" x="537.178" y="860.7642">&#8226; Admission Year (2024)</text><text fill="#033C73" font-family="Arial" font-size="12.5" lengthAdjust="spacing" textLength="167.5964" x="537.178" y="875.315">&#8226; Branch Code (ucp &#8594; ucs)</text><text fill="#033C73" font-family="Arial" font-size="12.5" lengthAdjust="spacing" textLength="134.3506" x="537.178" y="889.8658">&#8226; Roll Number (1566)</text></g><g class="entity" data-qualified-name="GMN46" data-source-line="85" id="ent0047"><path d="M519.0217,364.8971 L519.0217,450.151 A4.1667,4.1667 0 0 0 523.1884,454.3177 L741.6841,454.3177 A4.1667,4.1667 0 0 0 745.8507,450.151 L745.8507,371.1471 L735.4341,360.7305 L523.1884,360.7305 A4.1667,4.1667 0 0 0 519.0217,364.8971" fill="none" style="stroke:#033C73;stroke-width:1.0417;"/><path d="M735.4341,360.7305 L735.4341,369.0638 A2.0833,2.0833 0 0 0 737.5174,371.1471 L745.8507,371.1471 L735.4341,360.7305" fill="none" style="stroke:#033C73;stroke-width:1.0417;"/><text fill="#033C73" font-family="Arial" font-size="12.5" lengthAdjust="spacing" textLength="181.0791" x="530.4801" y="382.7499">GPS Multi-Sample Collection:</text><text fill="#033C73" font-family="Arial" font-size="12.5" lengthAdjust="spacing" textLength="194.5374" x="530.4801" y="397.3007">&#8226; Collects 3-5 location samples</text><text fill="#033C73" font-family="Arial" font-size="12.5" lengthAdjust="spacing" textLength="193.7805" x="530.4801" y="411.8515">&#8226; Validates accuracy (&lt; 150m)</text><text fill="#033C73" font-family="Arial" font-size="12.5" lengthAdjust="spacing" textLength="146.1182" x="530.4801" y="426.4023">&#8226; Detects GPS spoofing</text><text fill="#033C73" font-family="Arial" font-size="12.5" lengthAdjust="spacing" textLength="162.4268" x="530.4801" y="440.953">&#8226; Checks for teleportation</text></g><g class="entity" data-qualified-name="GMN49" data-source-line="93" id="ent0050"><path d="M525.9176,1237.8138 L525.9176,1311.7617 L312.9071,1387.293 L525.9176,1320.0951 L525.9176,1323.0677 A4.1667,4.1667 0 0 0 530.0842,1327.2344 L734.7982,1327.2344 A4.1667,4.1667 0 0 0 738.9648,1323.0677 L738.9648,1244.0638 L728.5482,1233.6471 L530.0842,1233.6471 A4.1667,4.1667 0 0 0 525.9176,1237.8138" fill="none" style="stroke:#033C73;stroke-width:1.0417;"/><path d="M728.5482,1233.6471 L728.5482,1241.9805 A2.0833,2.0833 0 0 0 730.6315,1244.0638 L738.9648,1244.0638 L728.5482,1233.6471" fill="none" style="stroke:#033C73;stroke-width:1.0417;"/><text fill="#033C73" font-family="Arial" font-size="12.5" lengthAdjust="spacing" textLength="98.1689" x="537.3759" y="1255.6666">Device Binding:</text><text fill="#033C73" font-family="Arial" font-size="12.5" lengthAdjust="spacing" textLength="177.1545" x="537.3759" y="1270.2174">&#8226; Max 3 devices per student</text><text fill="#033C73" font-family="Arial" font-size="12.5" lengthAdjust="spacing" textLength="180.7556" x="537.3759" y="1284.7681">&#8226; Prevents proxy attendance</text><text fill="#033C73" font-family="Arial" font-size="12.5" lengthAdjust="spacing" textLength="151.7822" x="537.3759" y="1299.3189">&#8226; Cross-session tracking</text><text fill="#033C73" font-family="Arial" font-size="12.5" lengthAdjust="spacing" textLength="153.5034" x="537.3759" y="1313.8697">&#8226; Trust score monitoring</text></g><g class="entity" data-qualified-name="GMN52" data-source-line="101" id="ent0053"><path d="M138.1467,89.8763 L138.1467,160.5794 A4.1667,4.1667 0 0 0 142.3134,164.7461 L256.7092,164.7461 L260.8759,224.8971 L265.0426,164.7461 L379.4431,164.7461 A4.1667,4.1667 0 0 0 383.6098,160.5794 L383.6098,96.1263 L373.1931,85.7096 L142.3134,85.7096 A4.1667,4.1667 0 0 0 138.1467,89.8763" fill="none" style="stroke:#033C73;stroke-width:1.0417;"/><path d="M373.1931,85.7096 L373.1931,94.043 A2.0833,2.0833 0 0 0 375.2764,96.1263 L383.6098,96.1263 L373.1931,85.7096" fill="none" style="stroke:#033C73;stroke-width:1.0417;"/><text fill="#033C73" font-family="Arial" font-size="12.5" lengthAdjust="spacing" textLength="108.9172" x="149.6051" y="107.7291">Elective Request:</text><text fill="#033C73" font-family="Arial" font-size="12.5" lengthAdjust="spacing" textLength="213.1714" x="149.6051" y="122.2799">&#8226; For courses outside branch/year</text><text fill="#033C73" font-family="Arial" font-size="12.5" lengthAdjust="spacing" textLength="168.3533" x="149.6051" y="136.8306">&#8226; Requires admin approval</text><text fill="#033C73" font-family="Arial" font-size="12.5" lengthAdjust="spacing" textLength="208.197" x="149.6051" y="151.3814">&#8226; Added to electiveCourses array</text></g><!--link student to UC1--><g class="link" data-entity-1="ent0002" data-entity-2="ent0004" data-link-type="dependency" data-source-line="50" id="lnk25"><path d="M74.8238,918.2721 C87.1988,904.4596 102.5946,889.6576 119.1051,879.3971 C142.1884,865.0534 164.2617,856.5858 189.2617,849.617" fill="none" id="student-to-UC1" style="stroke:#2FA4E7;stroke-width:3.125;"/><polygon fill="#2FA4E7" points="195.2821,847.9388,185.1326,846.4425,190.2651,849.3373,187.3702,854.4698,195.2821,847.9388" style="stroke:#2FA4E7;stroke-width:3.125;"/></g><!--link student to UC2--><g class="link" data-entity-1="ent0002" data-entity-2="ent0005" data-link-type="dependency" data-source-line="51" id="lnk26"><path d="M74.6988,949.8242 C111.8863,942.5742 170.6371,931.1444 212.8766,922.9152" fill="none" id="student-to-UC2" style="stroke:#2FA4E7;stroke-width:3.125;"/><polygon fill="#2FA4E7" points="219.0113,921.7201,209.0125,919.423,213.8991,922.716,210.6061,927.6026,219.0113,921.7201" style="stroke:#2FA4E7;stroke-width:3.125;"/></g><!--link student to UC3--><g class="link" data-entity-1="ent0002" data-entity-2="ent0006" data-link-type="dependency" data-source-line="52" id="lnk27"><path d="M74.6988,959.0951 C115.8759,964.3034 184.8316,973.029 225.5712,978.1853" fill="none" id="student-to-UC3" style="stroke:#2FA4E7;stroke-width:3.125;"/><polygon fill="#2FA4E7" points="231.7717,978.9701,222.9941,973.6592,226.6046,978.3161,221.9477,981.9266,231.7717,978.9701" style="stroke:#2FA4E7;stroke-width:3.125;"/></g><!--link student to UC4--><g class="link" data-entity-1="ent0002" data-entity-2="ent0008" data-link-type="dependency" data-source-line="53" id="lnk28"><path d="M45.4384,910.2096 C45.2821,787.8034 51.2301,453.7201 119.1051,372.1055 C130.6676,358.2096 140.7174,350.8553 157.6341,344.1887" fill="none" id="student-to-UC4" style="stroke:#2FA4E7;stroke-width:3.125;"/><polygon fill="#2FA4E7" points="163.4488,341.8971,153.199,341.4579,158.6032,343.8067,156.2544,349.2109,163.4488,341.8971" style="stroke:#2FA4E7;stroke-width:3.125;"/></g><!--link student to UC5--><g class="link" data-entity-1="ent0002" data-entity-2="ent0009" data-link-type="dependency" data-source-line="54" id="lnk29"><path d="M48.3551,910.5221 C54.7926,809.0221 74.553,565.5534 119.1051,498.1471 C141.7092,463.9492 176.8191,442.9838 208.7045,428.8379" fill="none" id="student-to-UC5" style="stroke:#2FA4E7;stroke-width:3.125;"/><polygon fill="#2FA4E7" points="214.4176,426.3034,204.1583,426.2965,209.6567,428.4155,207.5377,433.9139,214.4176,426.3034" style="stroke:#2FA4E7;stroke-width:3.125;"/></g><!--link student to UC6--><g class="link" data-entity-1="ent0002" data-entity-2="ent0010" data-link-type="dependency" data-source-line="55" id="lnk30"><path d="M47.7405,910.3867 C54.1988,767.3659 77.2196,330.2201 119.1051,283.5638 C134.1676,266.7826 149.7093,258.5829 171.4802,252.9683" fill="none" id="student-to-UC6" style="stroke:#2FA4E7;stroke-width:3.125;"/><polygon fill="#2FA4E7" points="177.5321,251.4076,167.4137,249.7141,172.4888,252.7082,169.4947,257.7834,177.5321,251.4076" style="stroke:#2FA4E7;stroke-width:3.125;"/></g><!--link student to UC7--><g class="link" data-entity-1="ent0002" data-entity-2="ent0012" data-link-type="dependency" data-source-line="56" id="lnk31"><path d="M60.9384,910.4805 C73.5946,876.293 93.6571,828.9596 119.1051,791.8971 C154.8134,739.8763 206.0618,694.2059 235.4889,669.8413" fill="none" id="student-to-UC7" style="stroke:#2FA4E7;stroke-width:3.125;"/><polygon fill="#2FA4E7" points="240.303,665.8555,230.4246,668.6249,236.2913,669.177,235.7391,675.0437,240.303,665.8555" style="stroke:#2FA4E7;stroke-width:3.125;"/></g><!--link student to UC13--><g class="link" data-entity-1="ent0002" data-entity-2="ent0019" data-link-type="dependency" data-source-line="57" id="lnk32"><path d="M74.7926,980.2409 C88.0217,991.2096 104.0634,1004.043 119.1051,1014.8138 C154.8967,1040.4388 192.6203,1063.7518 221.6099,1081.0122" fill="none" id="student-to-UC13" style="stroke:#2FA4E7;stroke-width:3.125;"/><polygon fill="#2FA4E7" points="226.9801,1084.2096,221.0564,1075.8334,222.5049,1081.5451,216.7932,1082.9936,226.9801,1084.2096" style="stroke:#2FA4E7;stroke-width:3.125;"/></g><!--link student to UC14--><g class="link" data-entity-1="ent0002" data-entity-2="ent0020" data-link-type="dependency" data-source-line="58" id="lnk33"><path d="M52.2092,1000.4492 C60.4905,1042.6159 78.9801,1104.6055 119.1051,1141.8971 C136.6259,1158.1888 154.1111,1166.7091 176.8715,1173.1362" fill="none" id="student-to-UC14" style="stroke:#2FA4E7;stroke-width:3.125;"/><polygon fill="#2FA4E7" points="182.8863,1174.8346,174.9964,1168.2771,177.874,1173.4193,172.7318,1176.2968,182.8863,1174.8346" style="stroke:#2FA4E7;stroke-width:3.125;"/></g><!--link student to UC15--><g class="link" data-entity-1="ent0002" data-entity-2="ent0021" data-link-type="dependency" data-source-line="59" id="lnk34"><path d="M45.0426,1000.3346 C46.4905,1060.6367 58.2717,1167.3451 119.1051,1229.3971 C133.2613,1243.8346 146.2358,1251.3478 165.6108,1257.4311" fill="none" id="student-to-UC15" style="stroke:#2FA4E7;stroke-width:3.125;"/><polygon fill="#2FA4E7" points="171.5738,1259.3034,163.8775,1252.5197,166.6047,1257.7432,161.3812,1260.4703,171.5738,1259.3034" style="stroke:#2FA4E7;stroke-width:3.125;"/></g><!--link student to UC16--><g class="link" data-entity-1="ent0002" data-entity-2="ent0023" data-link-type="dependency" data-source-line="60" id="lnk35"><path d="M50.8655,1000.4076 C60.9071,1084.0013 85.3863,1259.3555 119.1051,1309.6055 C142.2509,1344.0951 177.0004,1366.5581 208.5733,1382.2873" fill="none" id="student-to-UC16" style="stroke:#2FA4E7;stroke-width:3.125;"/><polygon fill="#2FA4E7" points="214.1676,1385.0742,207.6342,1377.1643,209.5057,1382.7518,203.9183,1384.6233,214.1676,1385.0742" style="stroke:#2FA4E7;stroke-width:3.125;"/></g><!--link student to UC17--><g class="link" data-entity-1="ent0002" data-entity-2="ent0024" data-link-type="dependency" data-source-line="61" id="lnk36"><path d="M46.3967,1000.5221 C48.6884,1109.543 60.303,1383.3346 119.1051,1449.1888 C133.7509,1465.5951 148.6478,1473.6242 169.9187,1479.1242" fill="none" id="student-to-UC17" style="stroke:#2FA4E7;stroke-width:3.125;"/><polygon fill="#2FA4E7" points="175.9696,1480.6888,167.9362,1474.3079,170.9272,1479.385,165.8501,1482.3759,175.9696,1480.6888" style="stroke:#2FA4E7;stroke-width:3.125;"/></g><!--link UC7 to UC8--><g class="link" data-entity-1="ent0012" data-entity-2="ent0013" data-link-type="dependency" data-source-line="64" id="lnk37"><path d="M314.4592,645.043 C374.8342,639.0846 468.5206,629.8438 540.0415,622.7917" fill="none" id="UC7-to-UC8" style="stroke:#2FA4E7;stroke-width:3.125;stroke-dasharray:7.2917,7.2917;"/><polygon fill="#2FA4E7" points="546.2613,622.1784,536.5227,618.9518,541.0781,622.6895,537.3404,627.2449,546.2613,622.1784" style="stroke:#2FA4E7;stroke-width:3.125;"/><text fill="#343A40" font-family="Arial" font-size="12.5" lengthAdjust="spacing" textLength="60.5835" x="421.1051" y="621.2083">&#171;include&#187;</text></g><!--link UC7 to UC9--><g class="link" data-entity-1="ent0012" data-entity-2="ent0014" data-link-type="dependency" data-source-line="65" id="lnk38"><path d="M312.9071,656.6992 C372.2926,664.2305 465.2277,676.0271 537.1444,685.1521" fill="none" id="UC7-to-UC9" style="stroke:#2FA4E7;stroke-width:3.125;stroke-dasharray:7.2917,7.2917;"/><polygon fill="#2FA4E7" points="543.3446,685.9388,534.5687,680.6252,538.1777,685.2832,533.5197,688.8923,543.3446,685.9388" style="stroke:#2FA4E7;stroke-width:3.125;"/><text fill="#343A40" font-family="Arial" font-size="12.5" lengthAdjust="spacing" textLength="60.5835" x="421.1051" y="662.8749">&#171;include&#187;</text></g><!--link UC7 to UC10--><g class="link" data-entity-1="ent0012" data-entity-2="ent0015" data-link-type="dependency" data-source-line="66" id="lnk39"><path d="M295.9696,637.0638 C326.7926,625.3555 373.553,608.1159 414.8551,595.0221 C466.5113,578.6471 519.8579,564.1247 563.3683,552.8226" fill="none" id="UC7-to-UC10" style="stroke:#2FA4E7;stroke-width:3.125;stroke-dasharray:7.2917,7.2917;"/><polygon fill="#2FA4E7" points="569.4176,551.2513,559.2961,549.5755,564.3765,552.5607,561.3912,557.6411,569.4176,551.2513" style="stroke:#2FA4E7;stroke-width:3.125;"/><text fill="#343A40" font-family="Arial" font-size="12.5" lengthAdjust="spacing" textLength="60.5835" x="421.1051" y="565.9999">&#171;include&#187;</text></g><!--link UC8 to UC11--><g class="link" data-entity-1="ent0013" data-entity-2="ent0016" data-link-type="dependency" data-source-line="67" id="lnk40"><path d="M707.7405,626.5742 C764.6467,636.3867 835.9251,648.6788 888.6022,657.7622" fill="none" id="UC8-to-UC11" style="stroke:#2FA4E7;stroke-width:3.125;stroke-dasharray:7.2917,7.2917;"/><polygon fill="#2FA4E7" points="894.7613,658.8242,886.2307,653.1251,889.6287,657.9392,884.8146,661.3372,894.7613,658.8242" style="stroke:#2FA4E7;stroke-width:3.125;"/><text fill="#343A40" font-family="Arial" font-size="12.5" lengthAdjust="spacing" textLength="60.5835" x="783.3551" y="631.6249">&#171;include&#187;</text></g><!--link UC11 to UC12--><g class="link" data-entity-1="ent0016" data-entity-2="ent0017" data-link-type="dependency" data-source-line="68" id="lnk41"><path d="M1028.6467,668.9805 C1068.8238,668.9805 1113.0738,668.9805 1157.0738,668.9805" fill="none" id="UC11-to-UC12" style="stroke:#2FA4E7;stroke-width:3.125;stroke-dasharray:7.2917,7.2917;"/><polygon fill="#2FA4E7" points="1163.3238,668.9805,1153.9488,664.8138,1158.1155,668.9805,1153.9488,673.1471,1163.3238,668.9805" style="stroke:#2FA4E7;stroke-width:3.125;"/><text fill="#343A40" font-family="Arial" font-size="12.5" lengthAdjust="spacing" textLength="60.5835" x="1065.6571" y="660.7916">&#171;include&#187;</text></g><!--link UC16 to UC11--><g class="link" data-entity-1="ent0023" data-entity-2="ent0016" data-link-type="dependency" data-source-line="71" id="lnk42"><path d="M314.8238,1420.418 C411.6884,1446.2201 619.178,1484.6992 745.8551,1385.6471 C863.3446,1293.7826 936.7614,793.6108 950.5114,692.6837" fill="none" id="UC16-to-UC11" style="stroke:#2FA4E7;stroke-width:3.125;stroke-dasharray:7.2917,7.2917;"/><polygon fill="#2FA4E7" points="951.3551,686.4909,945.961,695.2176,950.652,691.6515,954.2181,696.3425,951.3551,686.4909" style="stroke:#2FA4E7;stroke-width:3.125;"/><text fill="#343A40" font-family="Arial" font-size="12.5" lengthAdjust="spacing" textLength="58.8318" x="603.0459" y="1362.8749">&#171;extend&#187;</text><text fill="#343A40" font-family="Arial" font-size="12.5" lengthAdjust="spacing" textLength="124.0051" x="570.4592" y="1377.4257">First time on device</text></g><!--link UC9 to GMN46--><g class="link" data-entity-1="ent0014" data-entity-2="ent0047" data-link-type="association" data-source-line="85" id="lnk48"><path d="M543.2613,686.1367 C511.9384,677.5221 479.8551,662.2201 460.8342,635.1263 C430.5113,591.9284 435.4071,562.6263 460.8342,516.3763 C474.8655,490.8763 497.6676,470.5013 522.1363,454.6055" fill="none" id="UC9-GMN46" style="stroke:#2FA4E7;stroke-width:3.125;stroke-dasharray:7.2917,7.2917;"/></g><!--SRC=[VLRDRkCs4BxhAQO9q2O79vRZdtWH6FMVqW99ciRPNHJO2osDRS8IwP9K76DHeASUUsWVe40VRP-WZz2XH2cAx2pW2pq__6Q-uJVwngmmGGXHfJ4oqP2fYRb0Jw-vs3354c2XaMfcTZ42swAMITMuOU6QBJ4tAmmD4ykuwf1g39d64VajbKn5D9QnL70ylGpQmUI0erGHAkVKyllTuAAEPIzN44oRezQUMpLJ4FGlcysAYrwnI6wvMCA2nRgAEC85IsCJI67k6BLcg3YBFSzmGoN-zy-VVyFF3p0q1aN4H8Wmssc32JHWPj88XO7t6c5CfMZFYt5Xm4XGVBao477R8Iw5vsK8uSY5707Je5quOHtsMbtFAzi9HyEKQ1A6Xyo67y5d3ug6mT6DN781MsvMS2qb-NyI9xTtFpx2D64yXfz4l3lDRdW_zk5uD9fCWr4r_WF7BTmhkU0nEh_M8J-wXwR3ULoK7h-zGZgMgIBdMoPeB9Aijizxbqs5ad6C4UJUcW1JXRAHC1EkwE_v3aQAchiw_mMPAi2tuNXyEUsE-tlvFYAkunqyyWGDcvTLT0u5FE2lAMe3qzXoyOGEWmlfbY6lowhm_L6gzIAMsrfXiv09EnbZ6HN9UfRBe3zkL_skgJ03DpAd4kvH9LphZDKiwF9GqDYsApHmVJ-36KisSTQpMnfJtj3P6Jwmc4TPpg9V_Qzbck0Jfs82UW6eDegBWbY_UIXibiuJRYfZNtZxXxmpKgfFn32JMiJt2ZNDnFaDCtW-I_M6XrockXpFLfdjTVj_u9hUomw-XQ5WyOuUWZuqLvKhNKIHcCPrwe-cqzvUJ4v_OyirlPigvZH9s4k2zfi9AZ54PaZbqUGNOPqox7L1hlrlFfC7N581g1nFbcps31Vk-DAmhctOU39fxS4gCj1pSa55JA-C8KpV4GPIZr0AaMkJzWeXQZG6rhrsRjNE5xLpktRkrCxTshbNlw-UqAzdzEif_NfElsSBc-26Y44HSf9Y-nhFpWRP0ti7LrTSX36530OLI_zD2psAkkcoCFbx9lhBsLer6w6QFjEuwApH6N-lig0rHeF19n5mHI9bID60L2BA6FGy8GswPI8N6JbGhXtCr3v9AOnoPFk0hDydWfip5fuHoGkfI67VqR-jPgkTXXk_q-rM7CX0ltnhq2xKTZiI8aNBIjkeBx__2yF8oHLOQOOJc-dKsNBDpXGGJYWzVFdZBqX3NTWVI7lWBatcDDSdzkvJpoArHRdIvj8OcUIrMTMsUfUhNAvwuEIBxYy0kNyqN3Gw41UocekYTZvE6r7Jbq6OKZqxEBa2lzDC2cWJD5aIUw7UIDg5ObbSiC9mhMtpm62C6wbCTaSTUvMMBiMw9pxY8g9a1Tpy6UTyQjXG9zpeEZifv1EToAJaymvOAIu56YMrRj3Ep3YmtAnVe3ugoxuEfK989F4gbJL-fSaMQBa9tMeie0PKSPWlQA35hpdHEi_NyewuBqYb8FgkeTRIP0XW6mB-H1zCnRX4943q1OJk4hVnWId5TYMo_m40]--></g></svg>